<?xml version="1.0" encoding="iso-8859-1"?>
<!-- Generator: Adobe Illustrator 19.0.0, SVG Export Plug-In . SVG Version: 6.00 Build 0)  -->
<svg version="1.1" id="Capa_1" xmlns="http://www.w3.org/2000/svg" xmlns:xlink="http://www.w3.org/1999/xlink" x="0px" y="0px"
	 viewBox="0 0 512 512" style="enable-background:new 0 0 512 512;" xml:space="preserve">
<path style="fill:#B35C4B;" d="M136.029,418.397L51.177,503.25c-11.667,11.667-30.759,11.667-42.426,0s-11.667-30.759,0-42.426
	l84.853-84.853l55.366-12.94l12.304-2.971L136.029,418.397z"/>
<path style="fill:#8B432D;" d="M161.273,360.059l-25.244,58.338L51.177,503.25c-11.667,11.667-30.759,11.667-42.426,0
	L148.97,363.031L161.273,360.059z"/>
<polygon style="fill:#5A5A5A;" points="309.151,245.275 136.029,418.397 93.603,375.971 287.938,181.635 "/>
<g>
	<path style="fill:#E5E5E5;" d="M454.886,78.327L433.673,99.54c-5.939,5.939-15.273,5.94-21.213,0s-5.939-15.274,0-21.213
		l21.213-21.213c5.94-5.94,15.273-5.94,21.213,0C460.826,63.054,460.826,72.387,454.886,78.327z"/>
	<path style="fill:#E5E5E5;" d="M302.002,44.995V14.998C302.002,6.712,308.714,0,317,0s14.998,6.712,14.998,14.998v29.997
		c0,8.286-6.712,14.998-14.998,14.998C308.713,59.994,302.002,53.282,302.002,44.995z"/>
</g>
<path style="fill:#D9D9D9;" d="M302.002,375.001v-29.997c0-8.286,6.712-14.998,14.998-14.998s14.998,6.712,14.998,14.998v29.997
	c0,8.286-6.712,14.998-14.998,14.998C308.713,390,302.002,383.288,302.002,375.001z"/>
<path style="fill:#E5E5E5;" d="M210.934,88.934l-21.213-21.213c-5.863-5.863-5.863-15.351,0-21.213
	c5.863-5.863,15.351-5.863,21.213,0l21.213,21.213c5.863,5.863,5.863,15.351,0,21.213C226.285,94.797,216.797,94.797,210.934,88.934
	z"/>
<path style="fill:#D9D9D9;" d="M444.279,322.279l-21.213-21.213c-5.863-5.863-5.863-15.351,0-21.213
	c5.863-5.863,15.351-5.863,21.213,0l21.213,21.213c5.863,5.863,5.863,15.351,0,21.213
	C459.63,328.142,450.142,328.142,444.279,322.279z"/>
<path style="fill:#E5E5E5;" d="M122,195c0-8.286,6.712-14.998,14.998-14.998h29.997c8.286,0,14.998,6.712,14.998,14.998
	s-6.712,14.998-14.998,14.998h-29.997C128.712,209.998,122,203.287,122,195z"/>
<g>
	<path style="fill:#D9D9D9;" d="M452.006,195c0-8.286,6.712-14.998,14.998-14.998h29.997c8.286,0,14.998,6.712,14.998,14.998
		s-6.712,14.998-14.998,14.998h-29.997C458.718,209.998,452.006,203.287,452.006,195z"/>
	<path style="fill:#D9D9D9;" d="M412.46,99.54l42.426-42.426c5.94,5.94,5.94,15.273,0,21.213L433.673,99.54
		C427.734,105.479,418.4,105.481,412.46,99.54z"/>
</g>
<polygon style="fill:#444444;" points="309.151,245.275 136.029,418.397 114.816,397.184 298.545,213.455 "/>
<path style="fill:#FFD400;" d="M423.914,248.881c7.849-15.485,6.153-33.728-4.242-47.517l-15.274-20.365l8.273-24.396
	c5.516-16.544,1.485-34.152-10.819-46.456s-29.911-16.335-46.456-10.819L331,107.601l-20.365-15.274
	c-13.789-10.394-32.032-12.09-47.517-4.242c-15.274,8.06-24.82,23.546-24.607,40.729l0.423,25.881l-21.001,14.636
	c-14.001,10.182-21.001,26.941-18.457,43.911c2.759,17.183,14.638,30.758,31.184,35.85l24.396,7.849l7.849,24.396
	c5.092,16.546,18.668,28.425,35.85,31.184c16.97,2.544,33.73-4.455,43.911-18.457l14.636-21.001l25.881,0.423
	C400.368,273.701,415.854,264.155,423.914,248.881z"/>
<path style="fill:#FDBF00;" d="M383.185,273.488l-25.881-0.423l-14.636,21.001c-10.182,14.001-26.941,21.001-43.911,18.457
	c-17.183-2.759-30.758-14.638-35.85-31.184l-7.849-24.396l146.795-146.795c12.304,12.304,16.335,29.911,10.819,46.456L404.399,181
	l15.274,20.365c10.394,13.789,12.09,32.032,4.242,47.517C415.854,264.155,400.368,273.701,383.185,273.488z"/>
<g>
</g>
<g>
</g>
<g>
</g>
<g>
</g>
<g>
</g>
<g>
</g>
<g>
</g>
<g>
</g>
<g>
</g>
<g>
</g>
<g>
</g>
<g>
</g>
<g>
</g>
<g>
</g>
<g>
</g>
</svg>
