<?xml version="1.0" encoding="iso-8859-1"?>
<!-- Generator: Adobe Illustrator 19.0.0, SVG Export Plug-In . SVG Version: 6.00 Build 0)  -->
<svg version="1.1" id="Capa_1" xmlns="http://www.w3.org/2000/svg" xmlns:xlink="http://www.w3.org/1999/xlink" x="0px" y="0px"
	 viewBox="0 0 512 512" style="enable-background:new 0 0 512 512;" xml:space="preserve">
<path style="fill:#C8C6CD;" d="M219.314,246.252c-27-27.3-89.095,15.299-123.594,43.198c-3.6,2.999-5.7,7.2-5.7,11.698v59.398
	c0,4.2,1.8,7.8,4.2,10.799c2.999,2.401,6.599,4.2,10.799,4.2h59.396c4.501,0,8.701-2.1,11.699-5.7
	C204.015,335.346,246.612,273.249,219.314,246.252z"/>
<path style="fill:#AEADB3;" d="M176.116,369.846c-2.999,3.6-7.2,5.7-11.699,5.7H105.02c-4.2,0-7.8-1.8-10.799-4.2l125.093-125.093
	C246.612,273.249,204.015,335.346,176.116,369.846z"/>
<path style="fill:#3AAAFF;" d="M120.019,150.556v209.99c0,8.399-6.599,14.999-14.999,14.999H78.321l-18.299-11.699l-4.501-2.701
	L0.024,420.543V150.556l30.9-9c9.3,4.799,18.897,6.899,29.098,6.899c10.799,0,21.3-2.401,31.198-7.8L120.019,150.556z"/>
<path style="fill:#006EFF;" d="M120.019,150.556v209.99c0,8.399-6.599,14.999-14.999,14.999H78.321l-18.299-11.699v-215.39
	c10.799,0,21.3-2.401,31.198-7.8L120.019,150.556z"/>
<path style="fill:#FFD400;" d="M119.118,145.156L74.12,25.162c-2.098-6-8.099-8.701-14.098-8.701s-12,2.701-14.098,8.701
	L0.925,145.156c-2.401,6.599,0,14.098,5.698,17.998c16.2,10.799,34.799,16.198,53.398,16.198s37.198-5.4,53.398-16.198
	C119.118,159.255,121.519,151.755,119.118,145.156z"/>
<g>
	<path style="fill:#FDBF00;" d="M113.42,163.155c-16.2,10.799-34.799,16.198-53.398,16.198V16.46c6,0,12,2.701,14.098,8.701
		l44.998,119.994C121.519,151.755,119.118,159.255,113.42,163.155z"/>
	<path style="fill:#FDBF00;" d="M512,60.56v359.983l-30.9-9c-3.3-15.6-14.398-28.199-29.098-33.6c-4.799-1.5-9.6-2.399-14.999-2.399
		h-29.999c-8.401,0-14.999-6.601-14.999-14.999v-44.998l17.4-12.6l-17.4-17.398V255.55l16.799-6.901l-16.799-23.098v-29.999
		l14.999-7.5l-14.999-22.499v-29.999l20.699-10.501l-20.699-19.498V60.559c0-8.401,6.599-14.999,14.999-14.999h89.996
		C505.402,45.561,512,52.16,512,60.56z"/>
</g>
<g>
	<path style="fill:#BF6015;" d="M452.003,120.558c0,8.399-6.599,14.999-14.999,14.999h-44.998v-29.999h44.998
		C445.405,105.558,452.003,112.157,452.003,120.558z"/>
	<path style="fill:#BF6015;" d="M452.003,180.555c0,8.399-6.599,14.999-14.999,14.999h-44.998v-29.999h44.998
		C445.405,165.555,452.003,172.154,452.003,180.555z"/>
	<path style="fill:#BF6015;" d="M452.003,240.552c0,8.399-6.599,14.999-14.999,14.999h-44.998v-29.999h44.998
		C445.405,225.553,452.003,232.151,452.003,240.552z"/>
	<path style="fill:#BF6015;" d="M452.003,300.549c0,8.399-6.599,14.999-14.999,14.999h-44.998V285.55h44.998
		C445.405,285.55,452.003,292.148,452.003,300.549z"/>
</g>
<path style="fill:#FE9923;" d="M512,60.56v359.983l-30.9-9c-3.3-15.6-14.398-28.199-29.098-33.6V45.561h44.998
	C505.402,45.561,512,52.16,512,60.56z"/>
<path style="fill:#FD4E26;" d="M437.004,345.547H75.021c-20.399,0-38.998,7.8-52.798,21.898
	c-14.398,14.1-22.199,32.699-22.199,53.099c0,41.398,33.598,74.996,74.996,74.996h361.983c20.098,0,38.998-7.8,52.798-21.9
	C504.2,459.542,512,440.943,512,420.543C512,379.144,478.402,345.547,437.004,345.547z"/>
<path style="fill:#E61E14;" d="M512,420.543c0,20.399-7.8,38.998-22.199,53.097c-13.8,14.1-32.699,21.9-52.798,21.9H75.021
	c-41.398,0-74.996-33.598-74.996-74.996H512z"/>
<path style="fill:#5A5A5A;" d="M325.509,140.056c-3.9-4.199-10.199-5.7-15.598-3.6l-89.397,31.799
	c-8.399,3.001-15.898,7.8-22.199,14.1c-23.398,23.398-23.398,61.497,0,84.897c11.699,11.698,27,17.398,42.299,17.398
	c15.598,0,30.898-5.7,42.597-17.398c6.301-6.301,11.099-13.8,14.098-22.201l31.798-89.395
	C331.209,150.255,329.709,143.955,325.509,140.056z"/>
<path style="fill:#444444;" d="M329.108,155.655l-31.798,89.395c-2.999,8.401-7.798,15.9-14.098,22.201
	c-11.699,11.698-27,17.398-42.597,17.398c-15.299,0-30.6-5.7-42.299-17.398l127.194-127.196
	C329.709,143.955,331.209,150.255,329.108,155.655z"/>
<g>
	<path style="fill:#E5E5E5;" d="M452.003,420.543c0,8.399-6.599,14.999-14.999,14.999s-14.999-6.601-14.999-14.999
		c0-8.401,6.599-14.999,14.999-14.999S452.003,412.143,452.003,420.543z"/>
	<path style="fill:#E5E5E5;" d="M90.02,420.543c0,8.399-6.599,14.999-14.999,14.999s-14.999-6.601-14.999-14.999
		c0-8.401,6.599-14.999,14.999-14.999S90.02,412.143,90.02,420.543z"/>
</g>
<g>
	<path style="fill:#D9D9D9;" d="M60.022,420.543H90.02c0,8.399-6.599,14.999-14.999,14.999S60.022,428.942,60.022,420.543z"/>
	<path style="fill:#D9D9D9;" d="M452.003,420.543c0,8.399-6.599,14.999-14.999,14.999s-14.999-6.601-14.999-14.999H452.003z"/>
</g>
<g>
</g>
<g>
</g>
<g>
</g>
<g>
</g>
<g>
</g>
<g>
</g>
<g>
</g>
<g>
</g>
<g>
</g>
<g>
</g>
<g>
</g>
<g>
</g>
<g>
</g>
<g>
</g>
<g>
</g>
</svg>
