<svg height="512pt" viewBox="0 0 512 512" width="512pt" xmlns="http://www.w3.org/2000/svg"><path d="m199.75 320.5625-1.597656.417969c-18.277344 4.832031-43.304688 11.453125-44.679688 26.496093-.058594.726563.058594 1.136719.101563 1.230469-.007813 0 .144531.816407 5.136719 1.082031.855468.042969 1.699218.070313 2.542968.070313 5.574219-.078125 11.152344-.742187 17.160156-1.554687 3.40625-.460938 6.792969-.914063 10.136719-1.226563 6.050781-.574219 12.101563-1.238281 18.152344-1.914063l40.59375-4.34375.023437-32.886718c-33.644531 8.917968-44.03125 11.664062-47.597656 12.511718zm0 0"/><path d="m315.46875 240.792969c-.007812-41.386719-14.445312-59.210938-44.78125-81.375-8.332031-6.082031-17.246094-11.132813-26.515625-15.015625-13.097656-5.480469-31.554687-8.117188-56.523437-7.867188-25.378907.1875-49.996094 7.011719-71.203126 19.734375-2.398437 1.445313-3.984374 3.765625-4.453124 6.546875-.46875 2.765625.28125 5.570313 2.0625 7.722656l20.855468 25.105469c2.867188 3.457031 7.707032 4.460938 11.496094 2.398438 29.003906-15.667969 69.53125-12.683594 100.8125 7.472656 8.523438 5.496094 13.390625 12.671875 14.867188 21.964844 1.609374 10.140625-1.640626 20.292969-8.507813 26.515625-7.785156 7.046875-18.082031 8.121094-26.359375 8.992187l-9.363281 1.09375c-8.679688 1.03125-17.355469 2.074219-26 3.359375-15.914063 2.367188-36.625 6.078125-55.808594 13.859375-4.445313 1.800781-8.738281 3.789063-12.765625 5.90625-15.027344 7.902344-25.703125 17.5-31.710938 28.527344-9.136718 16.75-8.121093 39.859375 2.605469 58.871094 7.242188 12.851562 18.027344 22.996093 30.367188 28.570312 20.445312 9.222657 45.296875 6.046875 62.21875 2.855469 5.777343-1.089844 11.535156-2.34375 17.296875-3.597656 16.714844-3.628906 34.105468-7.261719 51.832031-7.296875 4.691406.023437 8.488281 3.839843 8.488281 8.53125v5.933593h51.242188l-.058594-52.421874c-.042969-38.792969-.085938-77.59375-.09375-116.386719zm-51.082031 100.746093c0 8.34375-5.691407 15.25-13.242188 16.050782l-42.574219 4.554687c-6.132812.683594-12.277343 1.359375-18.429687 1.9375-3.125.292969-6.28125.71875-9.457031 1.152344-6.226563.835937-12.671875 1.707031-19.234375 1.707031-.09375 0-.160157-.023437-.273438 0-1.132812 0-2.269531-.035156-3.394531-.09375-6.699219-.359375-11.75-2.089844-15.445312-5.300781-4.285157-3.71875-6.417969-9.410156-5.863282-15.605469 2.46875-26.949218 35.472656-35.679687 57.320313-41.445312l52.4375-13.894532c4.128906-1.089843 8.480469-.195312 11.929687 2.46875 3.898438 3.003907 6.226563 7.941407 6.226563 13.207032zm0 0"/><path d="m503.464844 0h-494.929688c-4.710937 0-8.535156 3.824219-8.535156 8.535156v494.929688c0 4.710937 3.824219 8.535156 8.535156 8.535156h494.929688c4.710937 0 8.535156-3.824219 8.535156-8.535156v-494.929688c0-4.710937-3.824219-8.535156-8.535156-8.535156zm-173.257813 424.167969c-1.605469 1.601562-3.773437 2.5-6.042969 2.5h-68.308593c-4.710938 0-8.535157-3.824219-8.535157-8.535157v-5.675781c-13.046874.871094-26.023437 3.6875-39.636718 6.640625-5.914063 1.28125-11.828125 2.570313-17.757813 3.6875-19.183593 3.632813-47.5625 7.140625-72.40625-4.082031-15.621093-7.054687-29.191406-19.746094-38.210937-35.734375-13.753906-24.390625-14.796875-53.292969-2.722656-75.425781 7.65625-14.03125 20.695312-25.960938 38.757812-35.457031 4.523438-2.371094 9.328125-4.601563 14.292969-6.613282 20.855469-8.457031 42.863281-12.417968 59.71875-14.925781 8.804687-1.3125 17.644531-2.363281 26.496093-3.421875l9.597657-1.117188c6.410156-.675781 13.039062-1.375 16.691406-4.675781 2.605469-2.355469 3.824219-6.742187 3.117187-11.179687-.710937-4.453125-2.816406-7.441406-7.253906-10.300782-21.8125-14.054687-56.074218-21.613281-83.457031-6.808593-10.929687 5.914062-24.695313 3.175781-32.742187-6.511719l-20.855469-25.105469c-4.976563-5.980469-7.074219-13.8125-5.769531-21.492187 1.296874-7.648438 5.855468-14.328125 12.492187-18.3125 23.828125-14.296875 51.441406-21.957032 79.855469-22.171875 27.53125-.230469 47.753906 2.714843 63.234375 9.199219 10.496093 4.394531 20.589843 10.105468 29.992187 16.972656 33.578125 24.535156 51.773438 46.960937 51.78125 95.15625.007813 38.78125.050782 77.574218.101563 116.367187l.070312 60.964844c0 2.285156-.898437 4.453125-2.5 6.058594zm119.558594-281.601563c-1.664063 1.664063-3.847656 2.5-6.03125 2.5-2.1875 0-4.371094-.835937-6.035156-2.5l-36.632813-36.632812v107.398437c0 4.710938-3.824218 8.535157-8.53125 8.535157-4.710937 0-8.535156-3.824219-8.535156-8.535157v-107.398437l-36.632812 36.632812c-1.664063 1.664063-3.847657 2.5-6.035157 2.5-2.183593 0-4.367187-.835937-6.03125-2.5-3.335937-3.335937-3.335937-8.730468 0-12.066406l51.199219-51.199219c.785156-.785156 1.734375-1.410156 2.773438-1.84375 2.082031-.863281 4.4375-.863281 6.519531 0 1.042969.433594 1.988281 1.058594 2.773437 1.84375l51.199219 51.199219c3.328125 3.335938 3.328125 8.730469 0 12.066406zm0 0"/></svg>